HIERARCHY
ROOT root
{
  OFFSET 0 95.9893 0
  CHANNELS 6 Xposition Yposition Zposition Zrotation Xrotation Yrotation
  JOINT torso_1
  {
    OFFSET 0 5.22546 -1.18466
    CHANNELS 6 Xposition Yposition Zposition Zrotation Xrotation Yrotation
    JOINT torso_2
    {
      OFFSET 0 5.77894 1.10239
      CHANNELS 6 Xposition Yposition Zposition Zrotation Xrotation Yrotation
      JOINT torso_3
      {
        OFFSET -1.0557e-17 6.16289 0.118334
        CHANNELS 6 Xposition Yposition Zposition Zrotation Xrotation Yrotation
        JOINT torso_4
        {
          OFFSET -1.13649e-17 6.69386 -0.456341
          CHANNELS 6 Xposition Yposition Zposition Zrotation Xrotation Yrotation
          JOINT torso_5
          {
            OFFSET -2.02997e-17 7.82529 -1.54945
            CHANNELS 6 Xposition Yposition Zposition Zrotation Xrotation Yrotation
            JOINT torso_6
            {
              OFFSET -2.60628e-17 9.77186 -0.940923
              CHANNELS 6 Xposition Yposition Zposition Zrotation Xrotation Yrotation
              JOINT torso_7
              {
                OFFSET -2.98794e-17 10.8563 1.62248
                CHANNELS 6 Xposition Yposition Zposition Zrotation Xrotation Yrotation
                JOINT neck_1
                {
                  OFFSET -1.32927e-17 4.92478 0.736013
                  CHANNELS 6 Xposition Yposition Zposition Zrotation Xrotation Yrotation
                  JOINT neck_2
                  {
                    OFFSET -1.86396e-17 4.96043 0.433981
                    CHANNELS 6 Xposition Yposition Zposition Zrotation Xrotation Yrotation
                    JOINT head
                    {
                      OFFSET -2.06766e-17 4.97002 0.787173
                      CHANNELS 6 Xposition Yposition Zposition Zrotation Xrotation Yrotation
                      End Site
                      {
                        OFFSET 0 0.1 0
                      }
                    }
                  }
                }
                JOINT l_shoulder
                {
                  OFFSET 1.26863 -7.82717 7.75148
                  CHANNELS 6 Xposition Yposition Zposition Zrotation Xrotation Yrotation
                  JOINT l_up_arm
                  {
                    OFFSET 13.3291 3.34342 -3.36319
                    CHANNELS 6 Xposition Yposition Zposition Zrotation Xrotation Yrotation
                    JOINT l_low_arm
                    {
                      OFFSET 30.0522 0.0615366 0.141
                      CHANNELS 6 Xposition Yposition Zposition Zrotation Xrotation Yrotation
                      JOINT l_hand
                      {
                        OFFSET 24.9344 0.0510561 0.116988
                        CHANNELS 6 Xposition Yposition Zposition Zrotation Xrotation Yrotation
                        End Site
                        {
                          OFFSET 0.1 0 0
                        }
                      }
                    }
                  }
                }
                JOINT r_shoulder
                {
                  OFFSET -1.26863 -7.82715 7.75138
                  CHANNELS 6 Xposition Yposition Zposition Zrotation Xrotation Yrotation
                  JOINT r_up_arm
                  {
                    OFFSET -13.3291 3.34342 -3.36319
                    CHANNELS 6 Xposition Yposition Zposition Zrotation Xrotation Yrotation
                    JOINT r_low_arm
                    {
                      OFFSET -30.0522 0.0615366 0.141
                      CHANNELS 6 Xposition Yposition Zposition Zrotation Xrotation Yrotation
                      JOINT r_hand
                      {
                        OFFSET -24.9344 0.0510559 0.116988
                        CHANNELS 6 Xposition Yposition Zposition Zrotation Xrotation Yrotation
                        End Site
                        {
                          OFFSET -0.1 0 0
                        }
                      }
                    }
                  }
                }
              }
            }
          }
        }
      }
    }
  }
  JOINT l_up_leg
  {
    OFFSET 9.50369 -4.32711 2.09145
    CHANNELS 6 Xposition Yposition Zposition Zrotation Xrotation Yrotation
    JOINT l_low_leg
    {
      OFFSET -0.876987 -39.8926 -0.674123
      CHANNELS 6 Xposition Yposition Zposition Zrotation Xrotation Yrotation
      JOINT l_foot
      {
        OFFSET -2.39345 -41.5694 -6.22357
        CHANNELS 6 Xposition Yposition Zposition Zrotation Xrotation Yrotation
        JOINT l_toes
        {
          OFFSET 0.801613 -10.1701 12.8571
          CHANNELS 6 Xposition Yposition Zposition Zrotation Xrotation Yrotation
          End Site
          {
            OFFSET 0 0 0.1
          }
        }
      }
    }
  }
  JOINT r_up_leg
  {
    OFFSET -9.50369 -4.32711 2.09145
    CHANNELS 6 Xposition Yposition Zposition Zrotation Xrotation Yrotation
    JOINT r_low_leg
    {
      OFFSET 0.876987 -39.8926 -0.674123
      CHANNELS 6 Xposition Yposition Zposition Zrotation Xrotation Yrotation
      JOINT r_foot
      {
        OFFSET 2.39345 -41.5694 -6.22357
        CHANNELS 6 Xposition Yposition Zposition Zrotation Xrotation Yrotation
        JOINT r_toes
        {
          OFFSET -0.801613 -10.1701 12.8571
          CHANNELS 6 Xposition Yposition Zposition Zrotation Xrotation Yrotation
          End Site
          {
            OFFSET 0 0 0.1
          }
        }
      }
    }
  }
}
MOTION
Frames: 6
Frame Time: 0.016667
-56.6713 90.0139 1319.3 -5.06773 -0.138429 -9.36177 0 5.22546 -1.18466 1.72801 2.12933 2.83592 0 5.77894 1.10239 1.21279 2.12518 2.94505 -1.0557e-17 6.16289 0.118334 0.668655 2.53093 2.88682 -1.13649e-17 6.69386 -0.456341 0.177893 2.61922 2.86453 -2.02997e-17 7.82529 -1.54945 0.233692 2.41943 2.80006 -2.60628e-17 9.77186 -0.940923 0.6071 2.74337 2.4108 -2.98794e-17 10.8563 1.62248 0.101598 0.646437 -0.351992 -1.32927e-17 4.92478 0.736013 -1.26962 -8.48703 -4.98991 -1.86396e-17 4.96043 0.433981 1.14386 -6.25891 -2.30509 -2.06766e-17 4.97002 0.787173 0.991969 -4.47767 5.0311 1.26863 -7.82717 7.75148 -8.55647 5.78211 -5.26435 13.3291 3.34342 -3.36319 -69.6518 -4.95749 14.4839 30.0522 0.0615366 0.141 1.12806 -0.0478085 -5.44486 24.9344 0.0510561 0.116988 -0.411583 -10.5974 9.83286 -1.26863 -7.82715 7.75138 -5.9328 -0.899545 1.31698 -13.3291 3.34342 -3.36319 60.9652 11.7329 32.1992 -30.0522 0.0615366 0.141 -7.51595 -2.62178 39.0089 -24.9344 0.0510559 0.116988 3.10261 -40.8894 7.04281 9.50369 -4.32711 2.09145 12.1425 -20.3249 -7.30129 -0.876987 -39.8926 -0.674123 2.83494 -10.3919 0.43993 -2.39345 -41.5694 -6.22357 -4.6692 -8.62768 15.6094 0.801613 -10.1701 12.8571 -3.82116e-16 -6.89393e-16 -1.70155e-16 -9.50369 -4.32711 2.09145 7.31424 14.4687 28.1129 0.876987 -39.8926 -0.674123 0.263958 0.985444 0.0149313 2.39345 -41.5694 -6.22357 -8.80174 -14.6292 -15.4929 -0.801613 -10.1701 12.8571 -9.97693e-16 -3.68707e-16 -1.2567e-14 
-56.6896 89.4957 1322.51 -5.00305 0.0913587 -9.46664 0 5.22546 -1.18466 1.53049 1.729 3.03066 0 5.77894 1.10239 1.04885 1.82587 3.12677 -1.0557e-17 6.16289 0.118334 0.560103 2.33656 3.06557 -1.13649e-17 6.69386 -0.456341 0.124509 2.5489 3.05523 -2.02997e-17 7.82529 -1.54945 0.280485 2.47616 2.98945 -2.60628e-17 9.77186 -0.940923 0.740689 2.87027 2.52342 -2.98794e-17 10.8563 1.62248 0.11044 0.646017 -0.33364 -1.32927e-17 4.92478 0.736013 -1.40561 -8.55522 -5.52324 -1.86396e-17 4.96043 0.433981 1.33827 -6.5273 -2.56147 -2.06766e-17 4.97002 0.787173 1.29537 -4.2032 4.56217 1.26863 -7.82717 7.75148 -7.02714 5.2417 -4.26369 13.3291 3.34342 -3.36319 -70.5123 -3.78985 16.9943 30.0522 0.0615366 0.141 1.3217 -0.0668535 -6.38266 24.9344 0.0510561 0.116988 -0.386549 -9.71681 11.1705 -1.26863 -7.82715 7.75138 -5.62066 -1.2672 1.25118 -13.3291 3.34342 -3.36319 60.7514 10.0805 32.7321 -30.0522 0.0615366 0.141 -7.89277 -2.93633 41.3555 -24.9344 0.0510559 0.116988 2.75075 -40.6565 6.57901 9.50369 -4.32711 2.09145 11.4771 -21.1938 -4.03451 -0.876987 -39.8926 -0.674123 3.08503 -11.2793 0.502469 -2.39345 -41.5694 -6.22357 -1.71478 -9.28746 15.7502 0.801613 -10.1701 12.8571 -3.77954e-16 -6.89213e-16 -1.73423e-16 -9.50369 -4.32711 2.09145 6.88256 16.0807 28.7451 0.876987 -39.8926 -0.674123 0.407002 1.51976 0.0211301 2.39345 -41.5694 -6.22357 -8.12244 -14.88 -15.5763 -0.801613 -10.1701 12.8571 -7.96828e-16 -3.77385e-16 -1.25733e-14 
-56.661 89.1014 1325.76 -4.72797 -0.401468 -9.39563 0 5.22546 -1.18466 1.30731 1.54884 3.22309 0 5.77894 1.10239 0.84152 1.70944 3.29798 -1.0557e-17 6.16289 0.118334 0.401761 2.27796 3.23716 -1.13649e-17 6.69386 -0.456341 0.0134908 2.54579 3.23639 -2.02997e-17 7.82529 -1.54945 0.264571 2.56156 3.19029 -2.60628e-17 9.77186 -0.940923 0.824597 3.00146 2.67642 -2.98794e-17 10.8563 1.62248 0.11913 0.644636 -0.326792 -1.32927e-17 4.92478 0.736013 -1.52371 -8.49094 -5.92447 -1.86396e-17 4.96043 0.433981 1.44019 -6.87171 -2.7694 -2.06766e-17 4.97002 0.787173 1.50789 -3.95057 3.67296 1.26863 -7.82717 7.75148 -5.41595 4.82621 -3.34423 13.3291 3.34342 -3.36319 -71.3219 -2.90732 18.926 30.0522 0.0615366 0.141 1.52598 -0.0904216 -7.37371 24.9344 0.0510561 0.116988 -0.17633 -8.42551 12.8189 -1.26863 -7.82715 7.75138 -5.41023 -1.53011 1.09368 -13.3291 3.34342 -3.36319 61.1655 8.32904 32.7132 -30.0522 0.0615366 0.141 -8.2596 -3.26896 43.721 -24.9344 0.0510559 0.116988 2.57212 -40.3127 5.9946 9.50369 -4.32711 2.09145 10.8225 -21.8818 -3.14626 -0.876987 -39.8926 -0.674123 2.49652 -9.18139 0.36123 -2.39345 -41.5694 -6.22357 -0.985242 -9.32279 15.6683 0.801613 -10.1701 12.8571 5.13456e-16 -6.507e-16 -2.10565e-16 -9.50369 -4.32711 2.09145 6.28408 17.7902 29.1578 0.876987 -39.8926 -0.674123 0.787529 2.94125 0.0311293 2.39345 -41.5694 -6.22357 -6.95944 -14.5223 -15.5964 -0.801613 -10.1701 12.8571 -3.02987e-16 -3.98721e-16 -1.25887e-14 
-56.5814 88.8628 1329.15 -4.3984 -2.36549 -9.09541 0 5.22546 -1.18466 1.08015 1.738 3.38066 0 5.77894 1.10239 0.610272 1.90161 3.42825 -1.0557e-17 6.16289 0.118334 0.207471 2.46829 3.37428 -1.13649e-17 6.69386 -0.456341 -0.143273 2.68473 3.3777 -2.02997e-17 7.82529 -1.54945 0.187246 2.71267 3.3779 -2.60628e-17 9.77186 -0.940923 0.84339 3.16575 2.84997 -2.98794e-17 10.8563 1.62248 0.121685 0.653922 -0.333807 -1.32927e-17 4.92478 0.736013 -1.63696 -7.74186 -6.41731 -1.86396e-17 4.96043 0.433981 1.41405 -7.24523 -3.03702 -2.06766e-17 4.97002 0.787173 1.98547 -3.88759 2.81834 1.26863 -7.82717 7.75148 -3.81305 4.54397 -2.63803 13.3291 3.34342 -3.36319 -71.7977 -2.33592 20.2618 30.0522 0.0615366 0.141 1.67815 -0.110309 -8.11323 24.9344 0.0510561 0.116988 0.14115 -7.01044 14.7309 -1.26863 -7.82715 7.75138 -5.4635 -1.73779 0.880382 -13.3291 3.34342 -3.36319 62.1886 6.8611 32.1044 -30.0522 0.0615366 0.141 -8.56081 -3.56374 45.7331 -24.9344 0.0510559 0.116988 2.59201 -40.1711 5.58692 9.50369 -4.32711 2.09145 9.92831 -21.405 -5.13246 -0.876987 -39.8926 -0.674123 1.3685 -5.07696 0.149382 -2.39345 -41.5694 -6.22357 -2.63552 -8.23811 15.4248 0.801613 -10.1701 12.8571 5.13456e-16 -6.507e-16 -2.10565e-16 -9.50369 -4.32711 2.09145 5.5636 20.3943 29.4331 0.876987 -39.8926 -0.674123 1.40064 5.22809 0.0273649 2.39345 -41.5694 -6.22357 -5.0401 -13.0712 -15.4655 -0.801613 -10.1701 12.8571 -6.00124e-16 -3.85884e-16 -1.25795e-14 
-56.4648 88.7048 1332.76 -3.62741 -3.5704 -8.85422 0 5.22546 -1.18466 0.785423 1.68764 3.50954 0 5.77894 1.10239 0.327524 1.94152 3.51299 -1.0557e-17 6.16289 0.118334 -0.0295211 2.58745 3.46417 -1.13649e-17 6.69386 -0.456341 -0.33377 2.91207 3.46271 -2.02997e-17 7.82529 -1.54945 0.0725161 3.0383 3.51158 -2.60628e-17 9.77186 -0.940923 0.830667 3.51951 2.99264 -2.98794e-17 10.8563 1.62248 0.121166 0.632764 -0.359608 -1.32927e-17 4.92478 0.736013 -1.58895 -6.78858 -6.44138 -1.86396e-17 4.96043 0.433981 1.43236 -7.63231 -3.07737 -2.06766e-17 4.97002 0.787173 2.18396 -4.71481 1.80765 1.26863 -7.82717 7.75148 -2.1313 4.30067 -2.01516 13.3291 3.34342 -3.36319 -72.4077 -1.91423 21.3827 30.0522 0.0615366 0.141 1.83656 -0.133139 -8.88442 24.9344 0.0510561 0.116988 0.115873 -6.25766 15.9539 -1.26863 -7.82715 7.75138 -5.75804 -1.97912 0.579817 -13.3291 3.34342 -3.36319 63.2123 6.22827 31.6039 -30.0522 0.0615366 0.141 -8.87869 -3.89846 47.9356 -24.9344 0.0510559 0.116988 2.03233 -40.3546 4.83032 9.50369 -4.32711 2.09145 8.70617 -21.9876 -8.83114 -0.876987 -39.8926 -0.674123 0.0438081 -0.163453 0.00291559 -2.39345 -41.5694 -6.22357 -5.37653 -5.91887 15.1401 0.801613 -10.1701 12.8571 4.13023e-16 -6.5504e-16 -2.07427e-16 -9.50369 -4.32711 2.09145 4.58183 21.8068 29.6827 0.876987 -39.8926 -0.674123 2.2111 8.23312 -0.0151922 2.39345 -41.5694 -6.22357 -2.18934 -10.9669 -15.3896 -0.801613 -10.1701 12.8571 -7.00557e-16 -3.81545e-16 -1.25763e-14 
-56.2824 88.4714 1336.49 -2.12769 -1.07061 -8.35412 0 5.22546 -1.18466 0.304485 0.751572 3.6001 0 5.77894 1.10239 -0.0905762 1.26667 3.52901 -1.0557e-17 6.16289 0.118334 -0.362099 2.12171 3.46891 -1.13649e-17 6.69386 -0.456341 -0.583584 2.89089 3.44886 -2.02997e-17 7.82529 -1.54945 -0.0924451 3.33705 3.51867 -2.60628e-17 9.77186 -0.940923 0.79679 3.84195 3.03906 -2.98794e-17 10.8563 1.62248 0.129495 0.555073 -0.402874 -1.32927e-17 4.92478 0.736013 -1.54098 -6.57081 -6.22968 -1.86396e-17 4.96043 0.433981 1.59438 -7.67702 -2.97496 -2.06766e-17 4.97002 0.787173 2.13991 -6.32828 0.871565 1.26863 -7.82717 7.75148 -0.566209 4.13292 -1.30219 13.3291 3.34342 -3.36319 -72.9067 -2.37584 22.4142 30.0522 0.0615366 0.141 2.03838 -0.165387 -9.86915 24.9344 0.0510561 0.116988 -0.305005 -5.45149 15.8455 -1.26863 -7.82715 7.75138 -6.25953 -2.13364 -0.0941092 -13.3291 3.34342 -3.36319 64.7512 6.81579 30.824 -30.0522 0.0615366 0.141 -9.25494 -4.33027 50.6668 -24.9344 0.0510559 0.116988 0.817045 -40.3464 4.3545 9.50369 -4.32711 2.09145 6.91802 -27.5032 -13.6617 -0.876987 -39.8926 -0.674123 -1.82255 6.79592 -0.0105361 -2.39345 -41.5694 -6.22357 -7.25058 -2.75996 15.0444 0.801613 -10.1701 12.8571 2.16319e-16 -6.63538e-16 -2.0128e-16 -9.50369 -4.32711 2.09145 3.51067 18.9571 29.5002 0.876987 -39.8926 -0.674123 3.27176 12.1093 -0.134899 2.39345 -41.5694 -6.22357 1.42934 -9.02962 -15.4903 -0.801613 -10.1701 12.8571 -9.97693e-16 -3.68707e-16 -1.2567e-14 
